<svg width="22" height="22" viewBox="0 0 22 22" fill="none" xmlns="http://www.w3.org/2000/svg">
<g clip-path="url(#clip0)">
<path d="M19.4152 13.9741L21.7733 15.1539C22.0758 15.3051 22.0758 15.7369 21.7733 15.8881L11.3673 21.0925C11.2533 21.1494 11.1276 21.179 11.0002 21.179C10.8728 21.179 10.7471 21.1494 10.6331 21.0925L0.22708 15.8881C0.159103 15.8539 0.101973 15.8014 0.0620563 15.7366C0.0221398 15.6718 0.0010041 15.5971 0.0010041 15.521C0.0010041 15.4449 0.0221398 15.3703 0.0620563 15.3054C0.101973 15.2406 0.159103 15.1881 0.22708 15.1539L2.58658 13.9741L9.89746 17.6303C10.5918 17.9768 11.41 17.9768 12.103 17.6303L19.4138 13.9728L19.4152 13.9741ZM10.6331 0.0866314C10.7471 0.0297376 10.8728 0.00012207 11.0002 0.00012207C11.1276 0.00012207 11.2533 0.0297376 11.3673 0.0866314L21.7733 5.28963C21.8413 5.32412 21.8983 5.37674 21.9382 5.44166C21.978 5.50658 21.9991 5.58127 21.9991 5.65744C21.9991 5.73362 21.978 5.80831 21.9382 5.87323C21.8983 5.93815 21.8413 5.99077 21.7733 6.02526L11.3673 11.2269C11.2533 11.2838 11.1276 11.3134 11.0002 11.3134C10.8728 11.3134 10.7471 11.2838 10.6331 11.2269L0.22708 6.02526C0.158742 5.99113 0.101263 5.93864 0.0610886 5.87367C0.0209143 5.8087 -0.000366211 5.73383 -0.000366211 5.65744C-0.000366211 5.58106 0.0209143 5.50618 0.0610886 5.44122C0.101263 5.37625 0.158742 5.32376 0.22708 5.28963L10.6331 0.0866314Z" fill="#FF7A7A"/>
<path d="M19.4151 9.04199L21.7732 10.2217C22.0757 10.373 22.0757 10.8047 21.7732 10.956L11.3672 16.159C11.2532 16.2159 11.1275 16.2455 11.0001 16.2455C10.8726 16.2455 10.7469 16.2159 10.6329 16.159L0.226931 10.956C0.158953 10.9217 0.101823 10.8693 0.0619067 10.8044C0.0219902 10.7396 0.000854492 10.665 0.000854492 10.5889C0.000854492 10.5127 0.0219902 10.4381 0.0619067 10.3733C0.101823 10.3085 0.158953 10.256 0.226931 10.2217L2.58643 9.04199L9.89731 12.6981C10.5917 13.0446 11.4098 13.0446 12.1028 12.6981L19.4137 9.04199H19.4151Z" fill="#FF7A7A"/>
</g>
<defs>
<clipPath id="clip0">
<rect width="22" height="22" fill="white"/>
</clipPath>
</defs>
</svg>
