<svg width="41" height="41" viewBox="0 0 41 41" fill="none" xmlns="http://www.w3.org/2000/svg">
<path fill-rule="evenodd" clip-rule="evenodd" d="M27.8886 25.4524L37.0794 34.6433C37.4024 34.9665 37.5838 35.4049 37.5837 35.8619C37.5835 36.3189 37.4018 36.7572 37.0785 37.0802C36.7553 37.4033 36.3169 37.5846 35.8599 37.5845C35.4029 37.5843 34.9646 37.4026 34.6416 37.0794L25.4508 27.8885C22.7033 30.0166 19.2483 31.018 15.7886 30.6891C12.329 30.3602 9.12461 28.7257 6.82733 26.118C4.53005 23.5104 3.31245 20.1255 3.42223 16.652C3.53201 13.1785 4.96093 9.87732 7.41829 7.41996C9.87565 4.9626 13.1769 3.53369 16.6504 3.42391C20.1239 3.31413 23.5087 4.53173 26.1163 6.82901C28.724 9.12629 30.3585 12.3307 30.6874 15.7903C31.0163 19.25 30.0149 22.7049 27.8868 25.4524H27.8886ZM17.0833 27.3333C19.8018 27.3333 22.4089 26.2534 24.3312 24.3312C26.2534 22.4089 27.3333 19.8018 27.3333 17.0833C27.3333 14.3648 26.2534 11.7577 24.3312 9.83547C22.4089 7.91322 19.8018 6.83331 17.0833 6.83331C14.3649 6.83331 11.7577 7.91322 9.8355 9.83547C7.91325 11.7577 6.83334 14.3648 6.83334 17.0833C6.83334 19.8018 7.91325 22.4089 9.8355 24.3312C11.7577 26.2534 14.3649 27.3333 17.0833 27.3333V27.3333Z" fill="black"/>
</svg>
