<svg width="466" height="351" viewBox="0 0 466 351" fill="none" xmlns="http://www.w3.org/2000/svg">
<g clip-path="url(#clip0)">
<path opacity="0.18" d="M134.164 43.8772C115.058 51.5193 94.6385 56.7836 77.8117 68.6136C60.9848 80.4435 48.2596 101.388 53.8054 121.186C58.1083 136.517 72.4552 148.507 73.1063 164.436C73.6271 177.135 65.2226 188.226 60.7599 200.127C51.7457 224.171 59.5406 252.179 75.4915 272.289C91.4424 292.4 114.437 305.78 137.993 316.025C193.818 340.227 255.001 349.435 315.483 342.737C333.511 340.714 351.7 337.165 367.68 328.588C383.661 320.011 397.327 305.798 401.795 288.23C407.874 264.363 396.504 238.604 402.719 214.772C405.151 205.427 410.194 196.891 412.343 187.475C417.51 164.779 404.921 141.598 388.905 124.705C372.889 107.812 353.12 94.5862 338.477 76.4864C328.333 63.9526 320.899 49.3722 310.47 37.075C289.979 12.8768 256.888 -1.40188 225.14 0.112352C193.599 1.60884 163.905 31.9704 134.164 43.8772Z" fill="#FF7F7F"/>
<path d="M123.392 319.781L124.297 323.886C118.414 328.151 110.879 329.168 103.801 330.806C96.7219 332.445 89.217 335.29 85.5652 341.566C90.8269 348.38 100.628 349.202 109.24 349.427C178.686 351.237 248.166 351.485 317.679 350.172C339.732 349.752 361.909 349.166 383.554 344.925C385.105 344.624 386.839 344.174 387.614 342.796C388.94 340.43 386.431 337.786 384.14 336.402C376.543 331.854 367.835 329.494 358.98 329.582C355.653 329.623 351.285 329.269 350.522 326.033C350.261 324.85 350.616 323.667 350.575 322.484C350.48 319.527 347.941 317.161 345.154 316.273C342.366 315.386 339.347 315.682 336.429 315.948C281.439 321.236 225.602 317.131 170.428 314.316C161.68 313.866 153.453 318.657 144.764 317.545C136.608 316.516 130.707 314.919 123.392 319.781Z" fill="url(#paint0_linear)"/>
<path d="M322.893 22.2047H143.125C131.677 22.2047 122.397 31.4788 122.397 42.9189V298.268C122.397 309.708 131.677 318.982 143.125 318.982H322.893C334.341 318.982 343.621 309.708 343.621 298.268V42.9189C343.621 31.4788 334.341 22.2047 322.893 22.2047Z" fill="#FF7F7F"/>
<path d="M322.893 22.2047H143.125C131.677 22.2047 122.397 31.4788 122.397 42.9189V298.268C122.397 309.708 131.677 318.982 143.125 318.982H322.893C334.341 318.982 343.621 309.708 343.621 298.268V42.9189C343.621 31.4788 334.341 22.2047 322.893 22.2047Z" fill="url(#paint1_linear)"/>
<path d="M235.107 224.207L119.823 223.479C115.452 223.456 111.251 225.168 108.143 228.239C105.035 231.311 103.275 235.49 103.25 239.858L103.144 256.834C103.13 258.999 103.542 261.145 104.358 263.15C105.174 265.156 106.378 266.981 107.9 268.522C109.421 270.062 111.232 271.288 113.228 272.13C115.224 272.971 117.366 273.411 119.533 273.425V273.425L228.863 274.105C236.075 274.162 242.988 276.999 248.158 282.026L251.218 284.983L251.389 257.774L251.431 251.268L251.496 240.786C251.52 236.418 249.806 232.22 246.733 229.114C243.66 226.008 239.478 224.25 235.107 224.225V224.207Z" fill="url(#paint2_linear)"/>
<path d="M328.889 56.3342V291.075C328.886 295.95 326.947 300.624 323.498 304.071C320.048 307.518 315.371 309.456 310.494 309.459H156.767C154.352 309.459 151.961 308.984 149.73 308.06C147.499 307.137 145.471 305.783 143.764 304.076C142.056 302.37 140.702 300.344 139.777 298.114C138.853 295.885 138.378 293.495 138.378 291.081V291.081V56.3342C138.377 53.9207 138.852 51.5308 139.775 49.3008C140.699 47.0708 142.053 45.0444 143.76 43.3374C145.467 41.6303 147.493 40.2759 149.724 39.3516C151.955 38.4273 154.346 37.9512 156.761 37.9504H310.476C312.893 37.9489 315.286 38.4232 317.52 39.3463C319.753 40.2694 321.783 41.6232 323.493 43.3304C325.203 45.0375 326.559 47.0646 327.485 49.2958C328.411 51.5271 328.888 53.9187 328.889 56.3342V56.3342Z" fill="#FF7F7F"/>
<path opacity="0.69" d="M328.889 56.3342V291.075C328.886 295.95 326.947 300.624 323.498 304.071C320.048 307.518 315.371 309.456 310.494 309.459H156.767C154.352 309.459 151.961 308.984 149.73 308.06C147.499 307.137 145.471 305.783 143.764 304.076C142.056 302.37 140.702 300.344 139.777 298.114C138.853 295.885 138.378 293.495 138.378 291.081V291.081V56.3342C138.377 53.9207 138.852 51.5308 139.775 49.3008C140.699 47.0708 142.053 45.0444 143.76 43.3374C145.467 41.6303 147.493 40.2759 149.724 39.3516C151.955 38.4273 154.346 37.9512 156.761 37.9504H310.476C312.893 37.9489 315.286 38.4232 317.52 39.3463C319.753 40.2694 321.783 41.6232 323.493 43.3304C325.203 45.0375 326.559 47.0646 327.485 49.2958C328.411 51.5271 328.888 53.9187 328.889 56.3342V56.3342Z" fill="url(#paint3_linear)"/>
<path opacity="0.6" d="M233.935 65.8336C234.474 63.4676 235.012 61.1016 234.799 58.6883C232.952 60.5842 230.428 61.6711 227.78 61.7109C227.466 61.6749 227.148 61.7347 226.868 61.8824C226.688 62.0521 226.551 62.2628 226.47 62.4965C226.388 62.7303 226.365 62.9802 226.401 63.2251C226.401 66.1293 226.353 69.1933 224.868 71.6835C223.382 74.1737 220.825 75.5874 218.156 76.4155C212.237 78.2964 205.851 77.4743 199.725 76.5279C198.322 76.309 196.854 76.0606 195.742 75.1852C194.232 74.0022 193.718 71.8964 193.919 69.9918C194.12 68.0872 194.937 66.3068 195.694 64.5323C196.878 61.7227 197.843 58.7238 197.529 55.7013C197.216 52.6787 195.292 49.6443 192.344 48.8991C191.726 48.7106 191.069 48.684 190.437 48.8217C189.804 48.9595 189.218 49.257 188.734 49.6857C188.27 50.2029 187.912 50.8057 187.68 51.4602C185.17 57.6346 183.544 64.1322 182.851 70.7608C179.43 70.4414 176.169 72.1804 172.789 72.6536C170.617 72.9611 140.591 73.1149 138.407 72.967C138.407 72.967 138.1 76.4155 138.91 77.5275C139.721 78.6395 144.125 78.6572 145.421 79.1482C154.648 82.6972 164.799 82.4665 174.636 83.3656C191.433 84.8975 211.622 90.2683 226.454 79.4321C231.065 76.0606 232.704 71.2399 233.935 65.8336Z" fill="url(#paint4_linear)"/>
<path opacity="0.6" d="M257.113 145.266C257.403 139.629 255.722 134.063 253.449 128.893C251.176 123.723 248.318 118.838 246.057 113.662C245.465 112.355 245.062 110.568 246.211 109.723C246.566 110.61 247.945 110.356 248.631 109.687C249.318 109.019 249.815 108.061 250.768 107.842C252.129 110.039 253.295 112.351 254.254 114.75L260.978 130.129C261.694 131.774 262.446 133.471 263.801 134.642C265.902 136.452 268.992 136.624 271.685 136.559C273.471 136.51 275.251 136.332 277.011 136.026C278.982 135.683 281.214 135.116 282.374 133.436C284.149 130.833 282.457 127.136 283.558 124.173C284.076 122.943 284.914 121.873 285.984 121.073C287.351 119.967 289.234 119.104 290.832 119.843C291.625 120.287 292.291 120.926 292.767 121.7C296.91 127.473 299.224 134.548 304.237 139.57C307.119 139.539 309.884 138.424 311.979 136.446C314.003 134.524 315.53 132.146 317.111 129.857C319.833 125.93 322.81 122.168 325.787 118.453L328.995 114.425C329.084 114.291 329.212 114.188 329.362 114.129C329.729 114.035 329.954 114.502 330.061 114.875C331.245 120.31 327.658 125.587 323.811 129.597C320.851 132.69 317.46 135.678 315.376 139.339C315.205 139.641 315.094 139.973 315.051 140.318C315.008 140.662 315.033 141.012 315.125 141.346C315.218 141.681 315.375 141.994 315.589 142.268C315.803 142.541 316.068 142.77 316.371 142.941C316.702 143.129 317.069 143.244 317.448 143.278C324.468 143.87 331.653 142.492 338.72 143.349C340.856 143.609 343.36 144.408 343.709 146.662C343.776 147.232 343.702 147.809 343.496 148.345C343.29 148.881 342.957 149.359 342.526 149.737C341.022 151.169 338.974 151.453 336.986 151.695C314.595 154.446 292.004 155.244 269.465 155.984C268.577 156.064 267.682 155.99 266.819 155.765C264.949 155.173 263.86 153.257 262.801 151.624C261.221 149.242 259.305 147.1 257.113 145.266V145.266Z" fill="url(#paint5_linear)"/>
<path d="M372.007 161.721V176.722C372.018 178.625 371.653 180.511 370.935 182.274C370.216 184.036 369.157 185.64 367.818 186.993C366.479 188.346 364.887 189.423 363.132 190.161C361.376 190.9 359.493 191.285 357.589 191.296H261.931C255.6 191.275 249.514 193.736 244.98 198.151L242.292 200.748V161.709C242.284 158.63 243.254 155.627 245.062 153.134C246.87 150.64 249.424 148.784 252.354 147.833C253.771 147.377 255.251 147.146 256.74 147.147H357.595C359.499 147.158 361.382 147.543 363.137 148.282C364.892 149.02 366.484 150.097 367.822 151.45C369.16 152.804 370.219 154.407 370.937 156.17C371.655 157.932 372.018 159.818 372.007 161.721V161.721Z" fill="url(#paint6_linear)"/>
<path d="M215.729 90.8244L218.215 128.846H215.729L213.089 126.308C208.603 122.008 201.773 120.47 195.564 120.47H101.528C97.7605 120.47 94.1474 118.975 91.4835 116.312C88.8196 113.65 87.323 110.039 87.323 106.274L88.2049 90.8244C88.2049 87.0594 89.7015 83.4486 92.3654 80.7863C95.0293 78.1241 98.6424 76.6285 102.41 76.6285H201.548C203.859 76.6233 206.136 77.1839 208.18 78.2615C210.224 79.339 211.972 80.9006 213.273 82.8096C214.889 85.169 215.746 87.9652 215.729 90.8244V90.8244Z" fill="url(#paint7_linear)"/>
<path d="M218.209 90.8244V128.846L215.563 126.308C211.087 122.008 205.118 119.606 198.908 119.607H104.842C101.075 119.607 97.4619 118.111 94.798 115.449C92.134 112.786 90.6375 109.176 90.6375 105.411V90.8244C90.6375 87.0594 92.134 83.4486 94.798 80.7863C97.4619 78.1241 101.075 76.6284 104.842 76.6284H204.004C206.315 76.6243 208.592 77.1854 210.635 78.2628C212.679 79.3403 214.428 80.9013 215.729 82.8096V82.8096C217.353 85.1664 218.219 87.9627 218.209 90.8244V90.8244Z" fill="white"/>
<path d="M372.007 160.503V175.083C372.007 178.848 370.51 182.459 367.846 185.121C365.182 187.783 361.569 189.279 357.802 189.279H263.783C257.572 189.28 251.602 191.681 247.122 195.981L244.459 198.5V160.503C244.459 156.748 245.947 153.146 248.598 150.485C251.249 147.825 254.847 146.322 258.604 146.307H357.82C361.584 146.311 365.192 147.809 367.852 150.471C370.513 153.133 372.007 156.741 372.007 160.503Z" fill="white"/>
<path d="M267.991 143.42C267.399 142.237 266.452 141.338 265.872 140.191C264.63 137.742 265.358 134.702 266.825 132.383C267.417 131.419 268.187 130.49 268.406 129.372C268.66 128.059 268.151 126.628 268.702 125.409C269.151 124.427 270.169 123.859 271.069 123.232C272.436 122.256 273.62 120.979 275.165 120.328C276.71 119.678 278.852 119.914 279.61 121.417C281.036 120.713 282.841 121.351 283.907 122.523C284.972 123.694 285.446 125.291 285.771 126.841C286.05 128.619 286.457 130.374 286.99 132.093C287.618 133.779 288.719 135.382 290.346 136.145C293.507 137.624 297.91 135.707 300.408 138.168C301.687 139.439 302.142 141.687 303.876 142.172C304.77 142.421 305.741 142.095 306.629 142.332C308.162 142.746 308.795 144.597 308.83 146.182C308.856 147.737 308.561 149.279 307.963 150.714C307.365 152.149 306.478 153.446 305.356 154.523C304.255 155.57 302.847 156.545 302.622 158.072C302.598 158.845 302.657 159.618 302.799 160.378C302.884 161.401 302.671 162.426 302.186 163.33C301.701 164.235 300.965 164.98 300.067 165.476C299.168 165.972 298.145 166.198 297.121 166.127C296.097 166.056 295.115 165.69 294.294 165.075C293.039 164.14 291.98 162.573 290.417 162.644C289.734 162.739 289.084 162.999 288.523 163.401C287.294 164.24 285.934 164.87 284.499 165.264C283.777 165.454 283.021 165.466 282.294 165.299C281.567 165.132 280.892 164.791 280.326 164.306C279.438 163.436 279.107 162.171 278.675 160.999C277.976 159.107 276.704 157.161 274.721 156.782C273.869 156.622 272.987 156.782 272.134 156.64C266.358 155.711 269.749 146.963 267.991 143.42Z" fill="#3F3D56"/>
<path d="M314.252 123.54C315.69 121.25 316.775 118.758 317.472 116.146C317.775 115.051 318.277 114.021 318.951 113.106C319.018 113.014 319.113 112.947 319.221 112.915C319.33 112.882 319.446 112.887 319.552 112.927C319.658 112.967 319.748 113.042 319.807 113.138C319.866 113.235 319.892 113.348 319.881 113.461L319.644 115.827C320.828 114.455 322.23 111.941 324.213 109.853C324.267 109.799 324.341 109.769 324.417 109.769C324.494 109.769 324.567 109.799 324.621 109.853C324.659 109.892 324.685 109.941 324.697 109.994C324.708 110.048 324.705 110.103 324.687 110.154L323.089 114.159C323.082 114.179 323.08 114.2 323.082 114.221C323.084 114.242 323.09 114.263 323.1 114.282C323.11 114.3 323.123 114.317 323.14 114.33C323.156 114.344 323.175 114.354 323.195 114.36V114.36C323.224 114.369 323.255 114.369 323.285 114.36C323.314 114.352 323.341 114.335 323.361 114.313L325.728 111.124C327.013 110.202 326.865 111.556 326.746 111.876L325.202 114.833C325.184 114.874 325.18 114.919 325.192 114.962C325.204 115.005 325.23 115.042 325.265 115.069C325.301 115.095 325.345 115.108 325.389 115.106C325.434 115.104 325.476 115.087 325.509 115.058C326.184 114.396 326.901 113.779 327.658 113.212C327.751 113.15 327.862 113.121 327.973 113.129C328.085 113.138 328.19 113.184 328.273 113.26C328.355 113.336 328.409 113.437 328.426 113.548C328.443 113.658 328.423 113.772 328.368 113.869L326.001 117.175C325.716 117.572 325.474 117.802 325.959 117.767L327.664 117.14C328.173 116.939 327.93 118.104 327.486 118.418C325.006 120.192 324 121.576 322.284 123.049C320.567 124.522 309.552 142.675 304.528 149.11C302.699 151.447 299.201 153.002 297.786 149.24C296.727 146.389 299.976 143.722 301.539 141.657C306.021 135.81 310.259 129.77 314.252 123.54Z" fill="url(#paint8_linear)"/>
<path d="M237.492 224.207L122.208 223.479C117.837 223.456 113.636 225.168 110.528 228.239C107.42 231.311 105.66 235.49 105.635 239.858L105.529 256.834C105.515 258.999 105.928 261.145 106.744 263.15C107.56 265.156 108.763 266.981 110.285 268.522C111.807 270.062 113.617 271.288 115.613 272.13C117.609 272.971 119.752 273.411 121.918 273.425V273.425L231.23 274.105C238.453 274.154 245.378 276.992 250.555 282.026L253.615 284.983L253.786 257.774L253.828 251.268L253.893 240.786C253.917 236.418 252.203 232.22 249.13 229.114C246.057 226.008 241.875 224.25 237.504 224.225L237.492 224.207Z" fill="white"/>
<path d="M217.197 30.0303H254.733C255.204 30.0303 255.656 30.2172 255.989 30.55C256.322 30.8828 256.509 31.3341 256.509 31.8048V31.8048C256.509 32.2754 256.322 32.7267 255.989 33.0595C255.656 33.3923 255.204 33.5793 254.733 33.5793H217.197C216.726 33.5793 216.274 33.3923 215.942 33.0595C215.609 32.7267 215.421 32.2754 215.421 31.8048V31.8048C215.421 31.3341 215.609 30.8828 215.942 30.55C216.274 30.2172 216.726 30.0303 217.197 30.0303V30.0303Z" fill="url(#paint9_linear)"/>
<path d="M216.925 91.7589C213.8 93.1075 213.249 92.8946 209.905 93.4802C206.561 94.0657 203.945 93.6399 200.761 92.451C198.577 99.1112 196.257 106.387 195.665 113.366C195.47 115.467 195.132 117.552 194.653 119.607H174.529C174.47 119.157 174.417 118.696 174.369 118.217C173.838 111.79 173.912 105.329 174.588 98.916C174.643 98.5237 174.676 98.1289 174.689 97.733C174.704 97.41 174.68 97.0863 174.618 96.7689C174.445 96.0863 174.161 95.4368 173.777 94.8465C172.978 93.4447 171.049 91.2975 169.978 89.7419C169.836 89.529 169.705 89.3279 169.599 89.1504C170.244 86.1929 173.091 84.7438 174.417 82.0525C175.4 79.9942 176.796 78.16 178.518 76.6639C179.074 76.1964 179.668 75.7769 180.294 75.4099C182.567 74.0909 185.189 73.5645 187.805 73.1682C188.213 73.1031 188.616 73.044 189.024 72.9907C190.701 74.2146 192.698 74.9255 194.771 75.0373C195.424 75.0232 196.077 75.0928 196.712 75.2443C197.251 75.4494 197.754 75.7368 198.204 76.0961L198.997 76.6876C200.453 77.7227 201.909 78.7696 203.365 79.8107C204.375 80.5781 205.45 81.255 206.579 81.8336C210.231 83.5608 211.74 83.4011 215.753 82.8924C216.22 85.4181 216.694 89.1504 216.925 91.7589Z" fill="#FF7F7F"/>
<path d="M187.775 72.9966C186.728 73.9607 189.776 77.2909 190.883 78.1899C191.989 79.089 193.67 79.0831 195.073 78.6691C196.008 78.397 197.002 77.8705 197.257 76.9241C197.342 76.2504 197.279 75.5662 197.073 74.919C196.819 73.529 197.073 72.068 196.695 70.6957C196.271 69.3108 195.409 68.1008 194.238 67.2473C193.143 66.3896 190.19 64.1123 189.58 66.3896C188.918 68.8147 190.226 70.7253 187.775 72.9966Z" fill="url(#paint10_linear)"/>
<path d="M187.538 119.607H175.109C174.879 119.13 174.624 118.666 174.346 118.217C174.286 118.124 174.217 118.039 174.138 117.962C173.593 117.388 173.215 116.677 173.044 115.904C171.446 110.394 171.706 104.512 173.783 99.1644C173.973 98.627 174.274 98.1353 174.665 97.7212C175.304 97.0409 176.027 96.7097 176.707 95.4557C178.051 92.9892 180.614 88.7836 181.88 86.2816C182.383 91.1378 180.495 95.6391 180.696 100.513C180.797 103.352 180.904 106.239 181.88 108.912C182.69 111.119 183.97 113.123 185.633 114.786C186.248 115.49 187.213 117.814 187.538 119.607Z" fill="url(#paint11_linear)"/>
<path d="M215.729 82.8509C215.729 82.8509 216.777 90.4871 216.735 90.0494C216.694 89.6117 231.68 85.5304 235.959 71.3522C236.286 70.8805 236.686 70.4633 237.143 70.116C242.47 66.1411 243.299 64.4672 241.706 65.4432C240.882 66.0086 239.883 66.2623 238.889 66.1589C239.476 65.6655 240.021 65.1233 240.517 64.5382C241.144 63.7752 242.517 62.9885 242.855 62.0657C242.904 61.9626 242.924 61.8482 242.914 61.7345C242.883 61.6284 242.815 61.5366 242.723 61.475C242.631 61.4134 242.521 61.3859 242.411 61.3973C242.198 61.4283 241.995 61.5094 241.819 61.6339C241.016 62.1353 240.247 62.6885 239.517 63.2901C239.061 63.6628 237.806 64.1655 238.238 63.2901C238.913 61.9001 240.41 60.9774 240.807 59.4868C240.84 59.4039 240.854 59.3146 240.848 59.2254C240.842 59.1363 240.816 59.0497 240.771 58.9722C240.617 58.7829 240.31 58.8421 240.085 58.9722C239.274 59.3389 236.829 62.6927 236.232 62.6158C235.634 62.5389 236.877 59.0314 236.924 58.357C236.924 58.1737 236.924 57.9548 236.764 57.8661C236.678 57.8342 236.583 57.8302 236.494 57.8546C236.405 57.879 236.326 57.9306 236.267 58.0021C234.705 59.2916 234.492 61.5511 233.485 63.3256C233.352 63.6253 233.108 63.8623 232.805 63.9881C232.16 64.1774 231.621 63.4439 230.964 63.296C230.847 63.2545 230.72 63.2545 230.603 63.296C230.242 63.4557 230.295 64.0177 230.514 64.3489C233.474 68.8561 225.939 79.6982 215.729 82.8509Z" fill="url(#paint12_linear)"/>
<path d="M171.659 90.5759C171.659 90.5759 168.551 115.573 170.931 119.607H176.098C175.039 111.574 175.239 103.426 176.69 95.4558C176.69 95.4558 176.234 91.5223 171.659 90.5759Z" fill="url(#paint13_linear)"/>
<path opacity="0.32" d="M155.631 89.1267H101.356C99.5191 89.1267 98.0299 90.615 98.0299 92.4509V92.4568C98.0299 94.2927 99.5191 95.781 101.356 95.781H155.631C157.468 95.781 158.957 94.2927 158.957 92.4568V92.4509C158.957 90.615 157.468 89.1267 155.631 89.1267Z" fill="#FF7F7F"/>
<path opacity="0.32" d="M155.631 102.749H101.356C99.5191 102.749 98.0299 104.237 98.0299 106.073V106.079C98.0299 107.915 99.5191 109.403 101.356 109.403H155.631C157.468 109.403 158.957 107.915 158.957 106.079V106.073C158.957 104.237 157.468 102.749 155.631 102.749Z" fill="#FF7F7F"/>
<path opacity="0.32" d="M359.666 163.01H305.392C304.509 163.01 303.662 162.66 303.038 162.037C302.413 161.414 302.061 160.568 302.059 159.686V159.686C302.059 159.25 302.145 158.817 302.313 158.414C302.48 158.011 302.725 157.644 303.034 157.336C303.343 157.027 303.709 156.782 304.113 156.615C304.516 156.448 304.949 156.362 305.386 156.362H359.666C360.103 156.362 360.535 156.448 360.939 156.615C361.343 156.782 361.709 157.027 362.018 157.336C362.327 157.644 362.572 158.011 362.739 158.414C362.906 158.817 362.992 159.25 362.992 159.686V159.686C362.992 160.568 362.642 161.413 362.018 162.037C361.394 162.66 360.548 163.01 359.666 163.01Z" fill="#FF7F7F"/>
<path opacity="0.32" d="M359.666 176.633H305.392C304.509 176.633 303.662 176.283 303.038 175.659C302.413 175.036 302.061 174.191 302.059 173.308V173.308C302.061 172.873 302.148 172.441 302.317 172.039C302.485 171.637 302.731 171.273 303.04 170.966C303.35 170.658 303.717 170.415 304.12 170.25C304.524 170.085 304.956 170 305.392 170.002H359.666C360.548 170.002 361.394 170.352 362.018 170.976C362.642 171.599 362.992 172.445 362.992 173.326V173.326C362.986 174.204 362.633 175.044 362.01 175.664C361.387 176.283 360.545 176.631 359.666 176.633V176.633Z" fill="#FF7F7F"/>
<path opacity="0.32" d="M206.827 241.035H152.559C151.676 241.035 150.83 240.685 150.205 240.062C149.58 239.438 149.228 238.593 149.227 237.711V237.711C149.227 236.828 149.578 235.98 150.203 235.356C150.828 234.731 151.675 234.381 152.559 234.381H206.827C207.71 234.381 208.556 234.731 209.18 235.354C209.803 235.978 210.154 236.823 210.154 237.705C210.155 238.141 210.069 238.574 209.903 238.977C209.736 239.381 209.492 239.748 209.184 240.057C208.875 240.366 208.509 240.612 208.106 240.78C207.703 240.947 207.27 241.034 206.833 241.035H206.827Z" fill="#FF7F7F"/>
<path opacity="0.32" d="M206.833 249.582H152.559C150.722 249.582 149.233 251.07 149.233 252.906V252.912C149.233 254.748 150.722 256.236 152.559 256.236H206.833C208.67 256.236 210.16 254.748 210.16 252.912V252.906C210.16 251.07 208.67 249.582 206.833 249.582Z" fill="#FF7F7F"/>
<path d="M301.87 151.577C301.474 152.694 300.805 153.695 299.923 154.487C298.271 155.995 296.176 156.942 294.549 158.474C290.938 161.869 290.34 167.293 289.962 172.232L288.642 189.279H263.783C262.001 189.28 260.224 189.479 258.486 189.87C258.806 185.296 259.082 180.722 259.315 176.148C259.753 167.553 259.77 158.101 254.29 151.459C253.721 150.919 253.329 150.22 253.165 149.453C253.094 148.572 253.692 147.791 254.254 147.087C254.29 147.052 254.313 147.016 254.349 146.975L258.007 142.509C258.192 142.211 258.435 141.952 258.721 141.749C259.008 141.546 259.332 141.402 259.676 141.326C260.278 141.364 260.843 141.631 261.256 142.071C262.665 143.353 263.949 144.765 265.091 146.289C265.843 147.235 266.577 148.193 267.358 149.116C271.045 153.47 276.674 156.534 281.989 153.044C285.64 150.572 289.443 148.334 293.377 146.342C295.209 145.454 297.088 144.664 299.005 143.976C298.893 144.893 299.384 145.638 299.994 146.342C300.649 147.009 301.225 147.749 301.71 148.548C301.935 149.018 302.065 149.527 302.092 150.047C302.119 150.566 302.044 151.086 301.87 151.577V151.577Z" fill="#FF7F7F"/>
<path d="M258.521 146.78C259.664 144.746 260.042 142.372 259.587 140.084C259.131 137.82 258.404 135.62 257.421 133.53L251.182 118.743C250.621 117.537 250.187 116.276 249.886 114.981C249.454 112.769 249.803 110.486 250.152 108.262C249.757 108.149 249.334 108.191 248.969 108.38C249.025 108.978 248.9 109.58 248.611 110.107C248.322 110.634 247.882 111.063 247.347 111.337C246.798 109.115 245.79 107.032 244.388 105.221C244.541 106.874 244.656 108.53 244.731 110.19C243.429 108.853 242.123 107.52 240.813 106.191C239.801 107.966 243.441 109.853 242.588 111.722L238.291 108.628C237.978 110.734 241.387 111.728 241.57 113.857L238.487 112.42C239.138 114.011 240.647 115.046 241.843 116.288C246.234 120.908 246.234 128.059 248.98 133.802C250.555 137.109 252.242 139.812 252.952 143.426C253.485 146.141 255.823 151.116 258.521 146.78Z" fill="url(#paint14_linear)"/>
<path d="M165.367 179.916C167.94 179.916 170.025 177.831 170.025 175.261C170.025 172.69 167.94 170.605 165.367 170.605C162.794 170.605 160.709 172.69 160.709 175.261C160.709 177.831 162.794 179.916 165.367 179.916Z" fill="#FF7F7F"/>
<path d="M179.684 179.916C182.257 179.916 184.342 177.831 184.342 175.261C184.342 172.69 182.257 170.605 179.684 170.605C177.112 170.605 175.026 172.69 175.026 175.261C175.026 177.831 177.112 179.916 179.684 179.916Z" fill="#FF7F7F"/>
<path d="M194.002 179.916C196.574 179.916 198.66 177.831 198.66 175.261C198.66 172.69 196.574 170.605 194.002 170.605C191.429 170.605 189.344 172.69 189.344 175.261C189.344 177.831 191.429 179.916 194.002 179.916Z" fill="#FF7F7F"/>
<path d="M279.906 258.892C282.478 258.892 284.564 256.808 284.564 254.237C284.564 251.666 282.478 249.582 279.906 249.582C277.333 249.582 275.248 251.666 275.248 254.237C275.248 256.808 277.333 258.892 279.906 258.892Z" fill="#FF7F7F"/>
<path d="M294.217 258.892C296.79 258.892 298.875 256.808 298.875 254.237C298.875 251.666 296.79 249.582 294.217 249.582C291.645 249.582 289.559 251.666 289.559 254.237C289.559 256.808 291.645 258.892 294.217 258.892Z" fill="#FF7F7F"/>
<path d="M308.529 258.892C311.101 258.892 313.187 256.808 313.187 254.237C313.187 251.666 311.101 249.582 308.529 249.582C305.956 249.582 303.871 251.666 303.871 254.237C303.871 256.808 305.956 258.892 308.529 258.892Z" fill="#FF7F7F"/>
<path d="M260.93 100.43C263.503 100.43 265.588 98.3461 265.588 95.7752C265.588 93.2043 263.503 91.1201 260.93 91.1201C258.358 91.1201 256.272 93.2043 256.272 95.7752C256.272 98.3461 258.358 100.43 260.93 100.43Z" fill="#FF7F7F"/>
<path d="M275.248 100.43C277.82 100.43 279.906 98.3461 279.906 95.7752C279.906 93.2043 277.82 91.1201 275.248 91.1201C272.675 91.1201 270.59 93.2043 270.59 95.7752C270.59 98.3461 272.675 100.43 275.248 100.43Z" fill="#FF7F7F"/>
<path d="M289.559 100.43C292.132 100.43 294.217 98.3461 294.217 95.7752C294.217 93.2043 292.132 91.1201 289.559 91.1201C286.987 91.1201 284.901 93.2043 284.901 95.7752C284.901 98.3461 286.987 100.43 289.559 100.43Z" fill="#FF7F7F"/>
<path d="M205.685 66.1235C205.046 68.3475 203.992 70.536 202.211 72.0384C200.99 73.0573 199.493 73.6901 197.911 73.8564C196.328 74.0228 194.733 73.7151 193.326 72.9726C191.919 72.23 190.765 71.0862 190.011 69.6865C189.256 68.2868 188.936 66.6944 189.089 65.112C189.089 64.9286 189.089 64.7039 188.959 64.5974C188.821 64.5501 188.671 64.5501 188.533 64.5974C187.663 64.6861 187.018 63.7871 186.757 62.959C186.52 62.3326 186.461 61.6531 186.586 60.9952C186.652 60.6694 186.804 60.3671 187.026 60.1189C187.247 59.8706 187.53 59.6852 187.846 59.5815C188.167 59.4921 188.51 59.5302 188.804 59.6879C189.097 59.8455 189.318 60.1105 189.421 60.4274C189.543 59.1964 189.948 58.0102 190.604 56.9612C191.268 55.5942 192.166 54.3533 193.256 53.2939C194.424 52.3096 195.84 51.6636 197.35 51.4259C198.859 51.1881 200.405 51.3678 201.82 51.9453C203.077 52.4643 204.208 53.2457 205.138 54.2373C206.068 55.2289 206.775 56.4077 207.212 57.6946C207.555 58.8776 207.052 59.9009 206.822 61.0543C206.437 62.6987 206.17 64.4732 205.685 66.1235Z" fill="url(#paint15_linear)"/>
<path d="M189.835 61.5453C189.799 61.5929 189.754 61.6323 189.702 61.6609C189.65 61.6895 189.592 61.7065 189.533 61.7109C189.302 61.7109 189.243 61.3915 189.225 61.1667C189.23 60.6117 189.018 60.0766 188.633 59.6761C188.538 59.5808 188.425 59.5052 188.301 59.4536C188.176 59.402 188.043 59.3754 187.908 59.3754C187.774 59.3754 187.64 59.402 187.516 59.4536C187.391 59.5052 187.278 59.5808 187.183 59.6761V59.6761C186.794 57.0756 187.348 54.4215 188.746 52.1937C188.918 51.9804 189.03 51.7252 189.071 51.4543C189.071 51.1054 188.87 50.7623 188.935 50.4192C189.011 50.1705 189.162 49.9514 189.367 49.7922C189.989 49.1497 190.742 48.6493 191.575 48.3253C191.986 48.165 192.43 48.1071 192.868 48.1566C193.306 48.2061 193.726 48.3614 194.09 48.6093C195.976 47.4975 198.121 46.8999 200.311 46.8762C201.583 46.8484 202.848 47.0632 204.04 47.5091C206.187 48.4003 207.924 50.0603 208.911 52.1641C209.875 54.266 210.226 56.5972 209.923 58.8895C208.001 59.758 205.815 59.838 203.835 59.1124C201.855 58.3867 200.239 56.9134 199.334 55.0092C199.162 55.9367 199.263 56.8942 199.624 57.7656C198.903 57.409 198.275 56.8892 197.79 56.2474C197.305 55.6057 196.977 54.8597 196.831 54.0688C196.387 53.6547 195.712 54.1812 195.345 54.6603C194.398 55.9083 193.522 57.3752 192.386 58.4458C191.874 58.827 191.404 59.2612 190.983 59.7412C190.527 60.2972 190.338 61.0129 189.835 61.5453Z" fill="#3F3D56"/>
<path d="M281.184 153.286C280.977 154.937 279.438 156.356 277.763 156.758C277.339 156.87 276.898 156.906 276.461 156.865C274.094 156.622 273.016 153.7 273.064 151.317C273.111 148.933 273.656 146.502 272.567 144.473C272.567 144.408 272.501 144.343 272.466 144.278C271.874 143.231 270.838 142.45 270.311 141.356C269.827 140.119 269.719 138.767 270.004 137.47C270.708 132.525 274.585 119.459 282.054 124.35C283.99 125.616 285.144 127.805 285.807 130.017C288.15 137.819 283.143 137.683 281.184 153.286Z" fill="url(#paint16_linear)"/>
<path d="M279.095 125.947C280.095 126.539 280.592 127.722 280.817 128.905C281.462 132.188 280.415 135.535 279.829 138.83C279.243 142.125 279.237 145.928 281.551 148.353L281.604 148.412C282.484 149.307 283.684 149.816 284.939 149.827C286.194 149.838 287.403 149.35 288.298 148.472C288.748 148.035 289.104 147.512 289.346 146.934C289.458 146.679 289.589 146.431 289.725 146.188C290.624 144.597 291.879 143.231 292.773 141.634C293.5 140.291 294.004 138.838 294.264 137.334C294.594 135.8 294.604 134.216 294.294 132.679C293.702 130.1 291.927 127.947 290.068 126.107C288.21 124.267 286.322 122.718 283.972 121.901C281.622 121.085 278.817 121.215 276.869 122.747C276.277 123.221 274.65 125.113 275.496 125.941C276.212 126.58 278.047 125.309 279.095 125.947Z" fill="#3F3D56"/>
<path d="M172.268 90.5759L169.563 89.1267L171.522 91.7944L171.653 90.5759H172.268Z" fill="url(#paint17_linear)"/>
<path d="M200.761 92.451C200.845 91.772 201.184 91.1503 201.709 90.7112C202.234 90.2721 202.906 90.0483 203.59 90.085C206.242 90.0081 216.528 88.6536 216.528 88.6536L216.925 91.7767C216.925 91.7767 207.828 95.6214 200.761 92.451Z" fill="url(#paint18_linear)"/>
<path opacity="0.18" d="M215.729 82.8509V84.235C215.729 84.235 206.739 86.6542 197.251 76.8945L196.659 75.2206C197.197 75.4257 197.701 75.713 198.151 76.0723L198.944 76.6638L203.312 79.7869C204.321 80.5544 205.397 81.2313 206.526 81.8099C210.177 83.537 211.687 83.3773 215.7 82.8686L215.729 82.8509Z" fill="white"/>
<path opacity="0.18" d="M188.266 75.2266C188.266 75.2266 178.921 74.7711 174.482 85.4181C173.529 87.6894 171.185 90.0081 171.185 90.0081L169.954 89.7478C169.812 89.5349 169.682 89.3338 169.575 89.1563C170.22 86.1988 173.067 84.7497 174.393 82.0583C175.376 80 176.772 78.1659 178.495 76.6698C179.05 76.2023 179.644 75.7828 180.27 75.4158C182.543 74.0968 185.165 73.5704 187.781 73.1741L188.266 75.2266Z" fill="white"/>
<path d="M301.87 151.577C301.474 152.694 300.805 153.695 299.923 154.487C298.271 155.995 296.176 156.942 294.549 158.474C290.938 161.869 290.34 167.293 289.962 172.232L288.642 189.279H269.862C269.862 189.279 280.095 168.506 282.883 163.005C285.671 157.504 294.193 153.884 294.193 153.884C300.834 148.738 301.87 151.577 301.87 151.577Z" fill="url(#paint19_linear)"/>
<path d="M278.059 156.469C277.976 156.58 277.876 156.677 277.763 156.758C277.339 156.87 276.898 156.907 276.461 156.865C274.094 156.622 273.016 153.7 273.064 151.317C273.111 148.933 273.993 146.632 272.016 143.627C273.052 144.378 274.425 144.846 277.432 145.041C279.604 145.159 278.302 156.155 278.059 156.469Z" fill="url(#paint20_linear)"/>
</g>
<defs>
<linearGradient id="paint0_linear" x1="239.83" y1="384.207" x2="229.178" y2="234.989" gradientUnits="userSpaceOnUse">
<stop stop-opacity="0"/>
<stop offset="0.49" stop-opacity="0.2"/>
<stop offset="0.52" stop-opacity="0.23"/>
<stop offset="0.99"/>
</linearGradient>
<linearGradient id="paint1_linear" x1="221.482" y1="572.409" x2="233.854" y2="140.498" gradientUnits="userSpaceOnUse">
<stop offset="0.01"/>
<stop offset="1" stop-opacity="0"/>
</linearGradient>
<linearGradient id="paint2_linear" x1="45553.8" y1="32983.1" x2="45894.8" y2="43603.7" gradientUnits="userSpaceOnUse">
<stop offset="0.01"/>
<stop offset="1" stop-opacity="0"/>
</linearGradient>
<linearGradient id="paint3_linear" x1="235.113" y1="479.089" x2="232.571" y2="-46.8465" gradientUnits="userSpaceOnUse">
<stop offset="0.02" stop-color="white" stop-opacity="0"/>
<stop offset="0.58" stop-color="white" stop-opacity="0.39"/>
<stop offset="0.68" stop-color="white" stop-opacity="0.68"/>
<stop offset="1" stop-color="white"/>
</linearGradient>
<linearGradient id="paint4_linear" x1="186.455" y1="45.3796" x2="187.957" y2="301.184" gradientUnits="userSpaceOnUse">
<stop stop-opacity="0"/>
<stop offset="0.99"/>
</linearGradient>
<linearGradient id="paint5_linear" x1="40680.5" y1="20441.9" x2="39940.7" y2="-7087.37" gradientUnits="userSpaceOnUse">
<stop stop-opacity="0"/>
<stop offset="0.99"/>
</linearGradient>
<linearGradient id="paint6_linear" x1="69759" y1="20401.1" x2="69503.3" y2="29677.7" gradientUnits="userSpaceOnUse">
<stop offset="0.01"/>
<stop offset="1" stop-opacity="0"/>
</linearGradient>
<linearGradient id="paint7_linear" x1="34592.4" y1="13852.7" x2="34778.3" y2="22280.2" gradientUnits="userSpaceOnUse">
<stop offset="0.01"/>
<stop offset="1" stop-opacity="0"/>
</linearGradient>
<linearGradient id="paint8_linear" x1="297.579" y1="130.644" x2="328.433" y2="130.644" gradientUnits="userSpaceOnUse">
<stop stop-color="#ECC4D7"/>
<stop offset="0.42" stop-color="#EFD4D1"/>
<stop offset="1" stop-color="#F2EAC9"/>
</linearGradient>
<linearGradient id="paint9_linear" x1="12952.2" y1="2026.01" x2="12952.2" y2="1690.24" gradientUnits="userSpaceOnUse">
<stop stop-opacity="0"/>
<stop offset="0.99"/>
</linearGradient>
<linearGradient id="paint10_linear" x1="3414.92" y1="4053.73" x2="3564.67" y2="4123.05" gradientUnits="userSpaceOnUse">
<stop stop-color="#ECC4D7"/>
<stop offset="0.42" stop-color="#EFD4D1"/>
<stop offset="1" stop-color="#F2EAC9"/>
</linearGradient>
<linearGradient id="paint11_linear" x1="3665.03" y1="14158.4" x2="2415.57" y2="14040.7" gradientUnits="userSpaceOnUse">
<stop stop-opacity="0"/>
<stop offset="0.99"/>
</linearGradient>
<linearGradient id="paint12_linear" x1="10450.6" y1="9745.46" x2="11699.3" y2="9745.46" gradientUnits="userSpaceOnUse">
<stop stop-color="#ECC4D7"/>
<stop offset="0.42" stop-color="#EFD4D1"/>
<stop offset="1" stop-color="#F2EAC9"/>
</linearGradient>
<linearGradient id="paint13_linear" x1="2161.79" y1="10345.9" x2="2236.8" y2="10345.9" gradientUnits="userSpaceOnUse">
<stop stop-color="#ECC4D7"/>
<stop offset="0.42" stop-color="#EFD4D1"/>
<stop offset="1" stop-color="#F2EAC9"/>
</linearGradient>
<linearGradient id="paint14_linear" x1="9152.72" y1="16980.7" x2="9933.96" y2="16980.7" gradientUnits="userSpaceOnUse">
<stop stop-color="#ECC4D7"/>
<stop offset="0.42" stop-color="#EFD4D1"/>
<stop offset="1" stop-color="#F2EAC9"/>
</linearGradient>
<linearGradient id="paint15_linear" x1="196.115" y1="55.2754" x2="198.94" y2="72.1396" gradientUnits="userSpaceOnUse">
<stop offset="0.2" stop-color="#ECC4D7"/>
<stop offset="0.37" stop-color="#F0DCCE"/>
<stop offset="1" stop-color="#F2EAC9"/>
</linearGradient>
<linearGradient id="paint16_linear" x1="8023.14" y1="13983.9" x2="8486.95" y2="13983.9" gradientUnits="userSpaceOnUse">
<stop stop-color="#ECC4D7"/>
<stop offset="0.42" stop-color="#EFD4D1"/>
<stop offset="1" stop-color="#F2EAC9"/>
</linearGradient>
<linearGradient id="paint17_linear" x1="172.02" y1="89.9075" x2="170.138" y2="90.6181" gradientUnits="userSpaceOnUse">
<stop stop-color="#68E1FD"/>
<stop offset="0.2" stop-color="#5DB4CF"/>
<stop offset="0.46" stop-color="#50819B"/>
<stop offset="0.69" stop-color="#475C76"/>
<stop offset="0.87" stop-color="#41455E"/>
<stop offset="0.99" stop-color="#3F3D56"/>
</linearGradient>
<linearGradient id="paint18_linear" x1="6065.29" y1="1623.13" x2="6045.92" y2="1876.89" gradientUnits="userSpaceOnUse">
<stop stop-opacity="0"/>
<stop offset="0.99"/>
</linearGradient>
<linearGradient id="paint19_linear" x1="15749.7" y1="17684.6" x2="20725.1" y2="19946.6" gradientUnits="userSpaceOnUse">
<stop stop-opacity="0"/>
<stop offset="0.99"/>
</linearGradient>
<linearGradient id="paint20_linear" x1="3516.29" y1="5792.54" x2="2816.33" y2="5895.22" gradientUnits="userSpaceOnUse">
<stop stop-color="#ECC4D7"/>
<stop offset="0.42" stop-color="#EFD4D1"/>
<stop offset="1" stop-color="#F2EAC9"/>
</linearGradient>
<clipPath id="clip0">
<rect width="466" height="351" fill="white"/>
</clipPath>
</defs>
</svg>
